<?xml version="1.0" encoding="UTF-8"?>
<svg id="Layer_2" data-name="Layer 2" xmlns="http://www.w3.org/2000/svg" viewBox="0 0 611.69 612.46">
  <defs>
    <style>
      .cls-1 {
        stroke: #000;
        stroke-miterlimit: 10;
      }
    </style>
  </defs>
  <g id="Layer_1-2" data-name="Layer 1">
    <path class="cls-1" d="m77.47,139.92c3.59,10.84,14.11,15.14,15.79,15.79,85.45,7.81,112.85,29.68,120.01,50.53C241.57,288.67,19.01,546.21,4.84,572.58c-4.59,8.54-4.34,17.29-4.34,17.29.05,1.57.72,9.86,4.34,14.29,8.81,10.8,26.59,11.87,44.21-6.32C221.7,408.36,413.29,199.92,585.93,10.43c.19-.44,1.51-3.49,0-6.32-1.57-2.94-5.55-4.43-9.47-3.16C414.34,36.75,252.22,72.54,90.11,108.33c-11.31,7.44-16.27,20.6-12.63,31.58Z"/>
    <circle cx="494.69" cy="424.04" r="117"/>
  </g>
</svg>